<?xml version="1.0" encoding="UTF-8"?>
<svg id="Calque_2" data-name="Calque 2" xmlns="http://www.w3.org/2000/svg" viewBox="0 0 279 51.7">
  <defs>
    <style>
      .cls-1 {
        fill: #222323;
      }

      .cls-2 {
        fill: #1aa485;
      }
    </style>
  </defs>
  <g id="Calque_1-2" data-name="Calque 1">
    <g>
      <path class="cls-1" d="M0,0h16.78c7.01,0,12.23,1.46,15.66,4.39,3.43,2.93,5.15,6.84,5.15,11.74,0,6.62-2.86,11.26-8.57,13.9l10.51,20.74h-11.45l-8.42-18.5c-.62.05-1.58.07-2.88.07h-5.62v3.74H0V0ZM11.16,9.86v12.6h5.62c3.65,0,6.35-.47,8.1-1.4,1.75-.94,2.63-2.58,2.63-4.93s-.88-3.98-2.63-4.9c-1.75-.91-4.45-1.37-8.1-1.37h-5.62Z"/>
      <path class="cls-1" d="M63.43,9.86c5.23,0,9.64,1.76,13.21,5.29,3.58,3.53,5.36,8.58,5.36,15.16,0,1.44-.05,2.54-.14,3.31h-28.66c.48,2.64,1.64,4.74,3.49,6.3,1.85,1.56,4.04,2.34,6.59,2.34,3.79,0,6.67-1.61,8.64-4.82l9,4.54c-1.82,3.02-4.27,5.4-7.34,7.13-3.07,1.73-6.5,2.59-10.3,2.59-5.86,0-10.75-1.97-14.69-5.9-3.94-3.94-5.9-8.95-5.9-15.05s1.99-11.1,5.98-15.01c3.98-3.91,8.9-5.87,14.76-5.87ZM63.29,19.22c-2.06,0-3.94.56-5.62,1.69-1.68,1.13-2.93,2.68-3.74,4.64h17.57c0-1.49-.64-2.92-1.91-4.28-1.27-1.37-3.37-2.05-6.3-2.05Z"/>
      <path class="cls-1" d="M107.06,9.86c2.26,0,4.4.54,6.44,1.62,2.04,1.08,3.71,2.6,5,4.57,1.49-1.92,3.4-3.43,5.72-4.54,2.33-1.1,4.64-1.66,6.95-1.66,3.65,0,6.86,1.34,9.65,4.03,2.78,2.69,4.18,6.24,4.18,10.66v26.21h-10.58v-21.82c0-6.29-2.3-9.43-6.91-9.43-3.36,0-5.57,1.44-6.62,4.32v26.93h-10.51v-21.82c0-6.29-2.3-9.43-6.91-9.43-3.36,0-5.59,1.51-6.7,4.54v26.71h-10.51V10.73h10.51v4.32c2.54-3.46,5.98-5.18,10.3-5.18Z"/>
      <path class="cls-2" d="M160.1,49.28c-1.06,1.01-2.4,1.51-4.03,1.51s-2.98-.5-4.03-1.51c-1.06-1.01-1.58-2.38-1.58-4.1s.53-3.1,1.58-4.1c1.06-1.01,2.4-1.51,4.03-1.51s2.98.5,4.03,1.51c1.06,1.01,1.58,2.38,1.58,4.1s-.53,3.1-1.58,4.1ZM161.33,36.1h-10.51V10.79h10.51v25.31Z"/>
      <path class="cls-1" d="M190.51,9.86c3.65,0,6.88,1.34,9.68,4.03,2.81,2.69,4.21,6.24,4.21,10.66v26.21h-10.51v-21.82c0-6.29-2.3-9.43-6.91-9.43-2.26,0-4.21.49-5.87,1.48-1.66.98-2.84,2.34-3.56,4.07v25.7h-10.51V10.73h10.51v5.47c1.54-1.97,3.49-3.52,5.87-4.64,2.38-1.13,4.74-1.69,7.09-1.69Z"/>
      <path class="cls-1" d="M239.61,0h10.51v50.76h-10.51v-3.46c-2.93,2.93-6.77,4.39-11.52,4.39-5.76,0-10.44-1.94-14.04-5.83-3.6-3.89-5.4-8.93-5.4-15.12s1.8-11.22,5.4-15.08c3.6-3.86,8.28-5.8,14.04-5.8,4.8,0,8.64,1.44,11.52,4.32V0ZM236.66,22.46c-1.97-2.16-4.44-3.24-7.42-3.24s-5.45,1.08-7.42,3.24c-1.97,2.16-2.95,4.92-2.95,8.28s.98,6.12,2.95,8.28c1.97,2.16,4.44,3.24,7.42,3.24s5.45-1.08,7.42-3.24c1.97-2.16,2.95-4.92,2.95-8.28s-.98-6.12-2.95-8.28Z"/>
      <path class="cls-1" d="M279,9.86v10.44c-4.46,0-7.74,1.2-9.83,3.6-2.09,2.4-3.13,5.21-3.13,8.42v18.43h-10.51V10.73h10.51v5.76c1.44-2.06,3.3-3.68,5.58-4.86,2.28-1.18,4.74-1.76,7.38-1.76Z"/>
      <path class="cls-2" d="M9.65,49.25c-1.06,1.01-2.4,1.51-4.03,1.51s-2.98-.5-4.03-1.51c-1.06-1.01-1.58-2.38-1.58-4.1s.53-3.1,1.58-4.1c1.06-1.01,2.4-1.51,4.03-1.51s2.98.5,4.03,1.51c1.06,1.01,1.58,2.38,1.58,4.1s-.53,3.1-1.58,4.1Z"/>
    </g>
  </g>
</svg>