<svg width="24" height="24" viewBox="0 0 24 24" fill="none" xmlns="http://www.w3.org/2000/svg">
<path d="M12.5048 12H12.5128M16.4998 12H16.5088M8.50879 12H8.51779" stroke="#484848" stroke-width="2" stroke-linecap="round" stroke-linejoin="round"/>
<path d="M22 5C22 5.66304 21.7366 6.29893 21.2678 6.76777C20.7989 7.23661 20.163 7.5 19.5 7.5C18.837 7.5 18.2011 7.23661 17.7322 6.76777C17.2634 6.29893 17 5.66304 17 5C17 4.33696 17.2634 3.70107 17.7322 3.23223C18.2011 2.76339 18.837 2.5 19.5 2.5C20.163 2.5 20.7989 2.76339 21.2678 3.23223C21.7366 3.70107 22 4.33696 22 5Z" stroke="#484848" stroke-width="1.5" stroke-linecap="round" stroke-linejoin="round"/>
<path d="M21.79 10.002C22.0881 11.3877 22.0724 12.8225 21.7439 14.2013C21.4155 15.5801 20.7827 16.8679 19.8919 17.9704C19.0012 19.0729 17.875 19.9621 16.5959 20.5728C15.3169 21.1836 13.9174 21.5003 12.5 21.5C10.872 21.5 9.34 21.09 8 20.369C6.132 19.362 4.875 20.298 3.766 20.466C3.68308 20.4779 3.59851 20.4699 3.51925 20.4428C3.43998 20.4157 3.36827 20.3702 3.31 20.31C3.22301 20.2176 3.16543 20.1014 3.1446 19.9763C3.12377 19.8511 3.14062 19.7226 3.193 19.607C3.629 18.582 4.028 16.638 3.483 15C3.16208 14.0324 2.999 13.0194 3 12C2.99963 10.5826 3.31642 9.1831 3.92716 7.90405C4.53789 6.625 5.42709 5.49882 6.52958 4.60805C7.63206 3.71727 8.9199 3.08448 10.2987 2.75605C11.6775 2.42762 13.1123 2.41188 14.498 2.70998" stroke="#484848" stroke-width="1.5" stroke-linecap="round" stroke-linejoin="round"/>
</svg>
